<svg xmlns="http://www.w3.org/2000/svg" viewBox="0 0 684.8 623.2"><path d="M224.7 0c-22.6 0-45.6 5.2-64.7 17.5-84.9 54.7 33.7 77.4 53.2 88.5 18.6 10.7 88.9 90.8 117.8-33.3C339.8 34.1 282.7 0 224.7 0m180.1 44.4c-70.2 7.5-3.2 170.6 93.6 176.1 65.5 3.6 114.7-155.8-93.6-176.1M30.3 79.7C-32 77.7 5.7 194 106.1 234.8c20.2 8.3 56.3-18.6 57.1-63.5.4-16.6-28.1-88-132.9-91.6m242 70.3c-28.2-.4-57.9 11.9-90.5 45.6-114.7 120.2 54.7 140.8 42.1 205.9-38.5 192.4-3.6 208.3 32.9 220.6 46.4 15.5 134.1-132.5 171-160.3 49.2-37.3 309-167.4 247.6-233.3-88.5-94.4-107.1 29-228.9-4-57.9-15.4-112.3-74.5-174.2-74.5M48.2 286c-11.1-.4-21.8 1.6-32.1 6.3C-29.6 313 58.9 437.2 99 440.8c49.2 4.4 69-35.3 69.8-58.3 1.2-30.2-61.1-95.3-120.6-96.5m15.9 185.3c-17.9.4-31.7 4.8-38.1 13.1C9.7 509 111.7 605 139.8 611.3c25.8 6 50-51.6 45.2-74.2-8.7-41.2-76.1-66.2-120.9-65.8"/></svg>