<svg xmlns="http://www.w3.org/2000/svg" viewBox="0 0 240.3 178.7"><path d="M97.1 21.5c.3 1.9-.5 2.4-3 2.2-.8.9-1.4 1.7-2.1 2.4 1-.2 1.6-.8 2.4-1 .6-.2 1.5-.1 2 .3.3.2.3 1.2.2 1.7-.1 1-.5 1.8-1.6 2.2-1 .4-1.8 1.3-2.7 1.8-1.8 1.1-3.5 1.7-5.2-.2-.6-.7-1.4-1.3-2.2-1.8-2-1-4.1-1.8-6.2-2.7-.6.8-1 1.1-2.1.4-1.2-.7-2.8-.9-4.2-1-1.2-.1-2.4.1-3.6.1-.6 0-1.3-.1-1.6-.4-.8-.7-1.5-1.6-2.4-2.6-.6.9-.8 1.5-1.3 1.9-.6.4-1.5 1-2.1.8-2.9-.9-5.8-.8-8.7.1-.8.2-1.8.1-2.6.3-1.6.4-3.1 1.2-4.6 1.4-2.8.3-5 1.4-6.9 3.4-.5.5-1.2 1-1.8 1.5-1.9 1.5-3.7 3-4 5.8-.1 1.2-.9 2.7-1.8 3.4-1.2.9-1.2 1.7-.9 2.9.2.6 0 1.5-.4 2.1-1 1.6-1.8 3.5-3.6 4.5l-.2.2c.6 1.5.1 2.6-.9 3.7-.6.8-.9 1.9-1.3 2.9 0 .5.6.9.9 1.5.3.7.3 1.5.4 2.3-.6.1-1.2.2-1.9.3-.9.1-1.8.2-2.9.4.8 1.5 1.1 2.7-.1 3.3-1.2.6-1 1.2-.8 2.1.1.4.1 1.1-.2 1.4-.9 1-1.8 1.9-2.8 2.9 2.1.9 2.2 1.2 1.3 4-.2.7-.6 1.7-1.2 1.9-.7.2-1.6-.3-2.6-.5-.4 1.3-.8 2.6-1.3 3.9-.7 1.7-.5 2.2 1.5 2.7 1 .2 1.6.7 1.6 1.8s.1 2.2.1 3.3c0 .4-.1 1.1-.3 1.1-.5.1-1.2.1-1.5-.2-.5-.5-.6-1.2-.9-1.9-.4-.9-.8-1.8-1.2-2.6l-1.6.8c.8 2.1 1.5 4.2 2.2 6.3.1.3 0 1-.3 1.2-.4.2-1 .2-1.4 0-1.1-.7-2.1-1.6-3-2.3.3 1.3.6 2.9.9 4.5.2 1-.4 1.4-1.3 1.5h-.9c-.1.9-.3 1.5-.4 2.3.5.3 1 .8 1.7 1 1.2.5 1.1 1.3.4 2.1-.3.4-.6.8-1 1-2 1.1-2 3.4-2.6 5.1-.4 1.4.1 3.1.1 4.7-1.9 0-2.5.8-2.4 2.4 0 .9-.1 1.9-1.4 2.3-1.2.5-1.1 1.6.1 2.1 1 .4 1.1 1.1.8 2-.2.6-.3 1.3-.5 1.9-.3.8-.7 1.5-1.1 2.4v2.6c1.2.2 2.3.5 3.5.6 2.6.1 3.2-.5 3.8-3.1.1-.4.8-.9 1.3-.9s1 .4 1.5.7c.8.5 4 .4 4.7-.2.2-.1.3-.3.4-.5.8-1.5 1.4-1.6 2.5-.2.5.6 1 1.2 1.6 1.6 1.4 1 2.9 1.9 4.4 2.9 1 .7 1.9 1 3.2.7 1.1-.3 2.4-.2 3.6 0 3.8.6 7.2-.6 10.7-1.9.5-.2 1.4-.4 1.6-.1.4.4.5 1.2.6 1.9 0 .3-.3.6-.6 1.1.5-.1.8-.1 1-.1 2.8-.5 5.6-1 8.4-1.4 1.4-.2 2.4 1.1 1.7 2-.5.6-1.7 1-2.5 1-1.6 0-2.1.3-2.4 1.9-.2.8-.7 1.5-1 2.3-.2.3-.3.6-.5.9-.7.9-1.4 1.8-2 2.8-.2.3-.4.7-.5 1-.5 1.7-.7 3.6-1.5 5.2-.6 1.3-1.6 3-3.2 2.6-.9-.2-1.8-1.6-2.1-2.7-.5-1.5-1.4-1.5-2.6-1.7.2.9.7 1.7.6 2.4-.1.5-1 .9-1.6 1.3-.2.1-.3.3-.3.5-.4 2.2-1.1 4.4-1.2 6.6-.1 1.5-.4 2.1-2.1 1.2v4.8c1.8-.5 3.2-.8 4.3.8.2.3.8.3 1.2.5 1 .3 2 .4 2.9.9 1.1.6 1.9.6 3-.1.7-.5 1.9-.5 2.8-.5.2 0 .4 1.3.5 2 0 .1.1.2.1.2.7-.2 1.5-.2 2.1-.5 1-.5 2.7-.3 2.3-2.3 0-.2.9-.7 1.4-1 .2.5.6.9.7 1.5.1.4-.3.9-.2 1.3.3.7.7 1.5 1.2 1.9.7.4 1.6.5 2.4.7 1.6.5 2.6 0 3.4-1.6.3-.5.9-1 1.4-1.1 1.2-.3 2.5-.2 3.8-.4 2.1-.4 3.2.3 3.5 2.4.2 1.1.4 2.4 1 3.3.6.9 2 2 2.7 1.8 1.9-.5 2.9-.4 3 1.8 1.2-.6 2.4-.9 3.3-1.6 1.1-.7 1.7-.6 2.2.7.1.2.2.5.4.6 1.2.9 2.5 1.8 3.8 2.6.3.2.8.2 1.1.1 1.8-.9 3.3-.1 4.7.7 1.9 1.1 2 1.1 3.1-.8.6-1 1.4-1 2.1-.1 1.4 2 4.2 2.5 6.3 1.3.6-.4 1.7-.8 2.1-.5 1.1.9 2.4.7 3.6.8 2.1.3 4.3 1.1 6.4-.3.3-.2 1.3 0 1.5.3.6.9 1.2 1 2.1.8.8-.2 1.8-.3 2.4-.8 1.1-1 2.5-1 3.5-.5 1.9.8 3.4-.1 4.6-.9 2-1.3 3.4-1.3 4.6.7 1 .1 1.9.3 2.8.3.5 0 1-.3 1.4-.5 1.1-.8 2.1-1.7 3.1-2.5 2.7-1.9 5.7-.4 8.6-.9 2-.4 3.5-.9 4.4-2.9.3-.6.8-1.2 1.3-1.5 2.3-1.3 4.6-2.4 6.9-3.6.9-.5 1.6-1.3 2.5-1.9 1.4-1.1 2.6-2.6 4.8-1.9.3.1.9-.3 1.2-.7 1.3-1.8 2.4-3.7 5-4.2 1.7-.3 3-1.6 4.1-3.1 1-1.4 1.3-3.6 3.8-3.5.2 0 .5-.9.7-1.3.3-.6.4-1.5.8-1.8.3-.2 1.3.1 1.8.5.7.7 1.2.7 1.7-.1.9-1.4 1.7-2.9 2.7-4.3.3-.4.8-1 1.2-1 1.5 0 1.6-1 2-2 .3-.7.8-1.4 1.3-1.7.3-.2 1.1.6 1.9 1.1.4-1.3.8-2.6 1.3-3.9.3-.9.6-1.9 1.1-2.7 1-1.4 2.1-.2 3.3.4l.6-.9c1.1-2.2 2.3-4.4 2.3-7.1 0-1.8 1.2-2.4 2.9-1.6.3.1.9.2 1 .1.7-1 1.8-2 1.7-3-.1-1.9.3-3.2 2.1-3.8 0-1.3-1.6-2.2-.1-3.3 2.3-1.7 2.3 1.3 3.6 1.8 1.6-.7.9-2 .9-3.2-.1-2.3.2-3.4 1.6-3.6-.9-1.4-.4-2.2 3.3-2.2-.2-.7-.5-1.3-.7-2-.4-1.3-1.2-2.7.7-3.7.3-.2.3-1 .3-1.5-.1-1.1-.4-2.4.9-2.9.7-.3 1.7 0 2.6.1.1-.5.4-1.4.3-2.2-.1-1.2.5-1.8 1.3-2.5 1.1-.9.9-3 2.9-3.2.1 0 0-.8.2-1.3.1-.4.3-.9.6-1 1.3-.4 1.2-1.2.6-2-.9-1.2-.3-2 .7-2.8.3-.2.5-.5.8-.8.7-.8 1.3-1.7 2.1-2.7-.4-.9.8-4 2.1-5.1-.1-1.2-.5-2.3-.1-2.9.8-1 2-1.7 3-2.5-.2-.7-.4-1.2-.4-1.4h-2.6c-.8 0-1.5.2-2.3.2-1 0-2.1-.2-3.1-.4-.5-.1-1-.6-1.5-.5-1.8.3-3.4 1-5.2 1.2-1.4.2-2.9-.1-4.3-.3-1-.1-2-.6-3-.6-2.5-.1-5.1-.3-7-2-1.2-1.1-2.4-1.8-3.9-2-.9-.1-2-.1-2.7-.5-2-1.2-3.9-1.2-6.1-.6-3.2.8-6.6.9-9.9 1.4-2.4.4-4.9.9-7.2 1.5s-4.4 1.5-6.7 2.2c-.9.3-1.9.6-2.6 1.1-2.4 1.9-5 3.6-7.7 5-1.1.6-2 1.5-3 2.4-.3.2-.5.5-.8.8-1.6 1.3-3.6 2-4.7 4-.2.4-.9.6-1.4.8-1.1.6-2.3 1-3.3 1.8-2.4 2-4.8 4.2-7.1 6.4-1.7 1.6-3.3 3.3-4.8 5-1.8 2-3.3 4.1-5.2 6-2.2 2.2-4.7 4.2-6.7 6.5-2.5 2.8-6 3.4-9.1 4.9-1.4.6-3.5 1.6-5.3-.1-.1-.1-.5.1-.8.1-1.4.1-2.7.3-4.1.4-.9.1-1.8.3-2.7.4-.9.1-1.9.2-2.8.2-.6 0-1.2 0-1.8.2-.9.2-1.7.9-2.5.8-2.1 0-4.2-.3-6.2-.6-1.5-.2-2.6-1.3-2.5-2.8.2-1.7.6-3.5.8-4.9h-5.7c-.3 0-.7.4-.9.7-.6.8-1.1 1.9-1.9 2.6-1.2 1.1-4.2 1-5.5 0-.3-.2-.7-.4-1.1-.3-3.3.7-6.8 1.1-9.9 2.8-1.5.8-3.2 1.2-4.6 2.1-2.4 1.5-4.8 3.1-6.9 5-2.2 1.9-3.8 4.5-7.3 3.4-.5-.2-1.1.1-1.6.2-.7.1-1.4.3-2 .2-.7-.2-1.4-.7-1.7-1.3-.2-.3.5-1.1.9-1.5.4-.4 1-.5 1.5-.7 3.5-1.4 6.5-3.4 8.4-5.9-.4-1.3-1-2.8-.9-2.9 1.4-.6 3.3-1.8 4.3-1.3 2.1.9 3.1 0 4.2-1.3 1.2-1.4 1.1-1.8-.3-3.1-2.4 1.7-2.4 1.7-5 .1-.4-.3-1.1-.4-1.6-.3-.9.1-1.8.5-2.6.7-.2.7-.3 1.2-.4 1.8 2.4 1.5.1 2.9.1 4.4-2.4.2-3.9-1.4-5-2.2-1.5.9-2.7 1.7-3.8 2.3-.7.4-2 .7-2.1 1.2-.1 1.7-1.3 2.1-2.4 2.5.1.9.1 1.6.2 2.4-2 .2-3.2-.8-4.5-1.7-.5-.4-1.3-1.2-1.6-1-1.6.8-1.9-.4-2.5-1.3-.4-.5-.9-.9-1.4-1.3.4-2 .7-2.2 2.6-1.6 1.4.4 2.8.8 4.3 1.1.6.1 1.2-.3 1.8-.4 0-.2 0-.4-.1-.6-.4-.1-.9-.3-1.3-.2-2.5.4-3.2.1-4.1-2.3-.8-1.9.3-3.3 2.3-3 1.4.1 3 .6 4.1-.8.2-.2.6-.3.9-.3 1.3.2 2.5.4 3.9.7-.6-.7-1.1-1.4-1.7-1.9-.8-.7-.9-1.6-.2-2.1.6-.5 1.6-.8 2.3-.5 1.9.6 2.6 2.4 3.3 4.2.1-.4.1-.8 0-1.1-.4-2.3-.1-2.8 2.1-3.6.8-.3 1.5-.9 2.1-1.5 1-1.1 2.1-1.8 3.9-.9-.4-.5-.5-.9-.7-1-1.6-.6-1.6-1.5-.8-2.8.1-.2-.2-.9-.6-1.2-.8-.7-1.4-3.7-.7-4.5.3-.3 1-.5 1.3-.3 1.6.6 3.2 1.3 4.6 2.2.6.4.8 1.5 1.3 2.2.8 1.2 1.8 2.3 2.7 3.5 0 0 .1-.4.3-.5C61.7 93 63 92 64 90.6c.2-.2.7-.4.7-.6-.1-1.5.9-1.6 2-1.4 1.5.3 3 .5 4.3-.3 1-.6 2-1.3 3.1-2 0-.5-.1-1.1-.1-1.7-.2.1-.3.2-.5.3-.7-.7-1.9-1.3-2-2.1-.4-2.2-1.6-3.9-2.7-5.7-.2-.3-.4-.6-.6-1-.4-1 .1-1.7 1-1.6.9.1 1.9.5 2.4 1.2 1.4 1.5 2.4 3.4 3.8 4.9 1.8 2.1 3.8 4 5.8 6 1.5 1.5 3.5 2.3 5.4 2.1 2.1-.2 4.1-1.4 6.1-2.1-.2-.7-.3-1.3-.5-1.8.2.1.4.1.6.2.4-.7 1.2-1.6 1-2-.5-1-1.5-1.8-2.3-2.7-.3-.4-.6-1.2-.5-1.3.4-.4 1-.8 1.6-.8.5 0 1.1.4 1.7.6-.1-.7-.4-1.1-.7-1.5-.9-1.5-.4-2.5 1.3-2.7.8-.1 1.5-.2 2.4-.2 0-.1.1-.2.1-.4-.2-1.7.2-2.8 2.3-2.4.7.1 2-.3 1.9-1.6 0-.9-.4-1.7-.5-2.6 0-.4.2-1.1.5-1.3 1.6-1.1 3.5 0 3.7 2.1.1 1.3.6 1.9 1.7 1.7v-6.3c0-1.1-.1-2.2 0-3.2s.2-2 .5-2.9c.2-.4.9-.8 1.3-.8.3 0 .7.7.9 1.1.4.9.7 1.9 1.1 2.9.3.7.9 1.4.9 2.2.1 2.6 1.2 4.7 3.3 6.4.3-.7.7-1.4 1-2 .2-.5.6-.9.8-1.3.6.5 1.5.8 1.7 1.4.2.9 0 1.9-.1 2.9-.2 1.2.2 1.8 1.4 1.9.5 0 1 .1 1.5.2 0-.2.1-.3.1-.4-.6-2.4-2.1-4.4-1.6-7.2.8-4.3.9-8.7 1.3-13.1.1-.9.3-1.7 1.4-1.6 1.2.1 1.2 1.1 1.1 2-.1 1.3-.7 2.8-.2 3.9.7 1.7.1 3.2.1 4.8-.1 2.5 0 5 .1 7.6l.6-.3c1.2.4 2.3.9 3.4 1.3-.1-1.2.7-1.5 1.8-1.3-.1-.4-.2-.8-.2-1.2 0-1 .4-2.3-.1-2.9-1.7-2-.3-4.1-.5-6.1 0-.3.9-.7 1.4-1 .2-.1.6.2.9.2 2.1-.2 2.8.2 3.4 2.2.4 1.5.6 3 .9 4.5.2 0 .4-.1.6-.1-.1-.7-.1-1.4-.4-2.1-.5-1.1.1-1.5 1-1.4.9.2 1.8.6 3 1.1 1.9-.8 2.4-1.6 2.2-3.8-1.7-.1-1.7-1.1-1.2-2.4.4-1.3.9-2.4 2.2-3 .4-.2.7-.7.8-1.1 1.3-4.1 2.6-8.1 4-12.2.2-.5.7-.9 1.1-1.3.5.6 1.5 1.3 1.5 1.9-.1 3 0 6.2-1.6 9-.2.3-.1 1.1.2 1.3 1.2 1 2.9.9 3.7-.4.8-1.1 1.6-.9 2.5-.4 1 .6 2.1 1.1 2.7 1.4.4-.8.6-1.6 1.1-1.9 2-1.2 4.1-1.9 6.4-.6 1.7 1 3 .8 3.6-.2 1-2 1.5-2 2.7-.3.8-1 1.4-2.3 2.4-2.8 1-.4 2.4.1 3.7.3.1-1 1.9-3.1 2.6-2.7.8.4 1.3 1.5 1.9 2.2-.1.1-.2.2-.4.3 1.9.9 1.9 1.3.9 3.1-.9 1.5-2.9 2.1-3.4 4-.2 1-1.2 1.9-2 2.7-.4.4-1.6.7-1.8.4-.5-.4-.8-1.4-.6-2 .5-1.5 1.3-2.8 1.9-4.2-.5.2-1.1.5-1.8.7.9.9.3 1.4-.4 2-1 .8-2.4 1.5-2.7 2.6-.5 1.6-1.6 2.6-2.4 3.8-.2.3-.6.7-.8.7-1.6-.3-3.6.6-4.4-1.2-1.8.3-3.4.6-4.6.8 0 1-.1 1.8-.1 2.6-.9-.2-1.8-.3-2.7-.5-.5.3-1.1.9-1.8 1.2-1.2.4-2.9.3-3.7 1-1.3 1.1-2.6.9-3.9.7-1.8-.3-2.5.1-2.6 1.9-.1.9-.3 1.8-.5 2.7-.1.6-.2 1.2-.2 1.6h4.1c.4 0 .9-.3 1.3-.5.3-.1.5-.3.8-.4 1-.3 2-.6 2.9-1 1.2-.5 2.3-1.1 3.5-1.7 2.9-1.4 6.1-2.1 8.2-4.8.8-1 2-.7 2.4.5.1.4.1.8.3 1.6 3.5-.4 6.8-.7 10.2-1.1.8-.1 1.6-.6 2.4-.8 2.3-.7 4.4-2.1 7.1-1.8 1.7.2 3.6-.4 5.3-.9 2.1-.6 4.1-1.8 6.2-2.2 2.9-.6 5-2.3 6.1-4.9 1.2-2.8 3.4-4.2 6-5.2 1.9-.7 3.9-1 5.2-3 .8-1.3 2.7-.8 3.3.7l6-5.4c.3-.3.6-.8.7-1.2 0-.2-.6-.7-.7-.6-2.1 1.3-2.4-.7-3.1-1.7-.7-1.1-1.7-1.5-2.9-.9-1.1.7-2.1.7-2.9-.6-.5-.7-1.3-1.3-2-1.7-1.3-.8-2.8-1.3-4.1-2.1-1-.5-1.7-1.4-2.7-1.8-1.2-.5-2.6-1.9-3.8.2-.1.2-.5.2-.7.3-2 .7-3.1-.7-4.6-1.6-1.1-.7-2.3-1.5-3.6-1.7-3-.6-6.4.2-8.9-2.7-1.6-1.8-4.4-.8-6.2-2.5-.8-.8-2-1.1-3.1-1.5-2.3-1-4.7-1.9-7-2.8-.9-.4-1.8-.8-3.1-1.4-1.6.6-1.5.5-2.5-1.5-.2-.4-.8-.7-1.2-.8-1.2-.5-2.4-1-3.6-1.3-1.5-.4-2.8-.5-3.9-2.1-.8-1.2-3-1.4-4.5-2-1.1-.5-2.2-1-3.8-1.6-1.1.6-2.8.7-4-.6-1.2-1.2-3.5 0-4-2.2h-.3c-.8-.1-1.7-.2-2.5-.3-2.4-.4-4.8-.8-7.3-.3-1.1.2-2.4-.4-3.6-.6-.4-.1-.9-.3-1.2-.2-.8.2-1.6.6-2.4.9.1.4.3.9.2 1.5-.1.5-.2 1.3-.6 1.5-.3.2-1-.2-1.5-.5-.7-.3-1.3-.7-1.6-.9-.1 1 .1 2.2-.4 2.9.2.1-1.1.1-1.9.1-2.1.1-3.8-2.5-5.9-1.1 0 .7-.1 1.4-.1 2.1-.7-.1-1.4-.3-2.1-.2-.8 0-1.5.3-2.3.4.2.5.2 1.1.5 1.6.2.4.7.7 1 1.1.2.3.6.9.5 1.1-.2.4-.7.7-1.1.8-1.8.7-2.6-1-3.2-.9-.6.5-1.1.9-1.7 1.4.6-.1 1.7.2 2.8.6.4.2.6.8.8 1.1-.5.3-.9.9-1.4.9-1.1.1-2.3-.1-3.5-.2 0 .1 0 .3-.1.4.7.1 1.4.4 2.1.4 1.8 0 2.8 1.1 3.8 2.3.7.8.2 1.7-.6 2.3-.9.6-1.3.1-1.7-.6-1.2-2.2-3.2-1.9-4.9-1.4-1.2.4-3.1.3-3.6 2.3.7.5 1.3.8 1.9 1.1zM118 78.2c-.7-.7-1.8-1.4-1.7-1.9.2-1.3-.5-2-.9-3-.5-1.2-1.1-1.3-2.1-.8.3 1.1.6 2.2 1 3.1.4.8 1.1 1.4 1.5 2.2.6 1.5 1 1.6 2.2.4zm23.7-7.7c-.1-.2-.3-.5-.4-.7-1.6.5-3.1 1.1-4.7 1.6.9.6 1.9 1.3 2.6 1.1 1-.3 1.7-1.3 2.5-2zm-38.1 10.1c-.9.6-2.2-.8-2.3 1.2.8-.4 2 1.1 2.3-1.2z" fill="#ffffff"/><path d="M97.1 21.5c-.6-.3-1.2-.6-1.9-.9.5-2 2.4-1.9 3.6-2.3 1.7-.6 3.8-.8 4.9 1.4.4.7.8 1.2 1.7.6.8-.6 1.3-1.4.6-2.3-1-1.2-2.1-2.3-3.8-2.3-.7 0-1.4-.3-2.1-.4 0-.1 0-.3.1-.4 1.2.1 2.3.3 3.5.2.5 0 1-.6 1.4-.9-.3-.4-.5-1-.8-1.1-1.1-.4-2.2-.7-2.8-.6.6-.5 1.1-.9 1.7-1.4.6-.1 1.5 1.6 3.2.9.4-.2.9-.5 1.1-.8.1-.3-.2-.8-.5-1.1-.3-.4-.8-.6-1-1.1-.3-.5-.3-1-.5-1.6.8-.1 1.5-.4 2.3-.4.7 0 1.4.1 2.1.2 0-.7.1-1.4.1-2.1 2.1-1.4 3.8 1.1 5.9 1.1.9 0 2.1 0 2.5-.6.5-.7.3-1.9.4-2.9.3.2 1 .6 1.6.9.5.2 1.2.7 1.5.5.4-.2.6-1 .6-1.5.1-.5-.2-1.1-.2-1.5.8-.3 1.6-.7 2.4-.9.4-.1.8.2 1.2.2 1.2.2 2.5.8 3.6.6 2.5-.4 4.9-.1 7.3.3.8.2 1.7.2 2.5.3h.3c.5 2.2 2.9 1 4 2.2 1.3 1.3 3 1.2 4 .6 1.5.7 2.7 1.2 3.8 1.6 1.6.6 3.8.8 4.5 2 1.1 1.6 2.4 1.7 3.9 2.1 1.2.3 2.4.8 3.6 1.3.5.2 1 .5 1.2.8 1 2 .9 2 2.5 1.5 1.3.6 2.2 1 3.1 1.4 2.3 1 4.7 1.9 7 2.8 1.1.4 2.3.8 3.1 1.5 1.8 1.7 4.6.7 6.2 2.5 2.4 2.8 5.8 2 8.9 2.7 1.3.3 2.5 1 3.6 1.7 1.4.9 2.6 2.3 4.6 1.6.2-.1.6-.1.7-.3 1.1-2.2 2.6-.7 3.8-.2 1 .4 1.8 1.3 2.7 1.8 1.4.7 2.8 1.3 4.1 2.1.8.4 1.6 1 2 1.7.9 1.3 1.8 1.2 2.9.6 1.1-.6 2.1-.2 2.9.9.7 1 1 3 3.1 1.7.1-.1.8.5.7.6-.1.4-.4.9-.7 1.2l-6 5.4c-.6-1.5-2.5-2-3.3-.7-1.3 2-3.3 2.3-5.2 3-2.6 1-4.8 2.4-6 5.2-1.1 2.6-3.2 4.2-6.1 4.9-2.1.5-4.1 1.6-6.2 2.2-1.7.5-3.6 1.1-5.3.9-2.7-.3-4.8 1.1-7.1 1.8-.8.3-1.6.7-2.4.8-3.4.4-6.8.7-10.2 1.1-.1-.8-.1-1.2-.3-1.6-.4-1.2-1.6-1.5-2.4-.5-2.1 2.8-5.3 3.5-8.2 4.8-1.2.6-2.3 1.2-3.5 1.7-1 .4-2 .7-2.9 1-.3.1-.5.3-.8.4-.4.2-.9.5-1.3.5-1.3.1-2.5 0-4.1 0 .1-.4.1-1 .2-1.6.2-.9.4-1.8.5-2.7.1-1.7.9-2.1 2.6-1.9 1.3.2 2.6.4 3.9-.7.9-.8 2.5-.6 3.7-1 .7-.3 1.3-.9 1.8-1.2.9.2 1.8.3 2.7.5 0-.8.1-1.6.1-2.6 1.2-.2 2.7-.5 4.6-.8.8 1.9 2.8.9 4.4 1.2.2 0 .6-.4.8-.7.8-1.2 1.9-2.2 2.4-3.8.3-1 1.7-1.8 2.7-2.6.8-.6 1.3-1.1.4-2 .7-.3 1.3-.5 1.8-.7-.7 1.4-1.4 2.7-1.9 4.2-.2.6.2 1.6.6 2 .3.2 1.4 0 1.8-.4.8-.8 1.7-1.7 2-2.7.5-2 2.5-2.5 3.4-4 1.1-1.8 1.1-2.2-.9-3.1.1-.1.2-.2.4-.3-.6-.8-1.1-1.8-1.9-2.2-.8-.4-2.5 1.7-2.6 2.7-1.3-.1-2.7-.7-3.7-.3-1 .4-1.6 1.8-2.4 2.8-1.2-1.7-1.6-1.7-2.7.3-.6 1.1-1.9 1.2-3.6.2-2.3-1.4-4.4-.6-6.4.6-.5.3-.6 1.1-1.1 1.9-.6-.3-1.7-.9-2.7-1.4-1-.5-1.7-.7-2.5.4-.9 1.2-2.6 1.4-3.7.4-.3-.2-.3-1-.2-1.3 1.6-2.8 1.5-5.9 1.6-9 0-.6-1-1.3-1.5-1.9-.4.4-.9.8-1.1 1.3-1.4 4-2.6 8.1-4 12.2-.1.4-.4 1-.8 1.1-1.4.6-1.8 1.8-2.2 3-.5 1.3-.5 2.3 1.2 2.4.2 2.2-.4 3-2.2 3.8-1.2-.4-2.1-.9-3-1.1-.9-.2-1.5.2-1 1.4.3.6.3 1.4.4 2.1-.2 0-.4.1-.6.1-.3-1.5-.5-3-.9-4.5-.5-2-1.3-2.4-3.4-2.2-.3 0-.7-.3-.9-.2-.5.2-1.5.7-1.4 1 .2 2-1.2 4.1.5 6.1.5.6.1 1.9.1 2.9 0 .4.1.8.2 1.2-1.1-.2-1.9.1-1.8 1.3-1.1-.4-2.3-.9-3.4-1.3l-.6.3c0-2.5-.2-5-.1-7.6.1-1.6.6-3.1-.1-4.8-.4-1.1.1-2.6.2-3.9.1-.9.1-1.9-1.1-2-1.1-.1-1.3.7-1.4 1.6-.4 4.4-.5 8.8-1.3 13.1-.5 2.8.9 4.8 1.6 7.2 0 .1 0 .2-.1.4-.5-.1-1-.1-1.5-.2-1.2-.1-1.6-.7-1.4-1.9.2-1 .4-2 .1-2.9-.2-.6-1.1-.9-1.7-1.4-.3.4-.6.9-.8 1.3-.4.7-.7 1.3-1 2-2.1-1.7-3.2-3.8-3.3-6.4 0-.7-.6-1.4-.9-2.2-.4-1-.7-2-1.1-2.9-.2-.4-.6-1.1-.9-1.1-.5 0-1.2.4-1.3.8-.3.9-.4 1.9-.5 2.9-.1 1.1 0 2.2 0 3.2v6.3c-1.1.1-1.6-.4-1.7-1.7-.1-2.1-2.1-3.2-3.7-2.1-.3.2-.6.9-.5 1.3.1.9.5 1.7.5 2.6.1 1.3-1.2 1.7-1.9 1.6-2.2-.3-2.5.7-2.3 2.4 0 .2-.1.3-.1.4-.8.1-1.6.2-2.4.2-1.7.2-2.2 1.2-1.3 2.7.3.4.6.8.7 1.5-.6-.2-1.1-.6-1.7-.6-.6 0-1.2.4-1.6.8-.1.2.2 1 .5 1.3.7.9 1.7 1.7 2.3 2.7.2.4-.6 1.3-1 2-.2-.1-.4-.1-.6-.2.1.6.3 1.1.5 1.8-2 .8-4 1.9-6.1 2.1-1.9.2-4-.6-5.4-2.1-2-1.9-4-3.9-5.8-6-1.4-1.5-2.4-3.4-3.8-4.9-.6-.6-1.6-1.1-2.4-1.2-.9-.1-1.4.7-1 1.6.1.4.4.7.6 1 1.2 1.8 2.3 3.5 2.7 5.7.2.8 1.3 1.4 2 2.1.2-.1.3-.2.5-.3 0 .6.1 1.3.1 1.7-1.1.7-2.1 1.4-3.1 2-1.4.9-2.8.6-4.3.3-1-.2-2-.1-2 1.4 0 .2-.5.3-.7.6-1 1.3-2.2 2.3-3.9 2.9-.2.1-.2.4-.3.5-.9-1.2-1.9-2.3-2.7-3.5-.5-.7-.6-1.8-1.3-2.2-1.4-.9-3-1.6-4.6-2.2-.3-.1-1 0-1.3.3-.7.8-.1 3.8.7 4.5.3.3.7 1 .6 1.2-.8 1.3-.8 2.2.8 2.8.2.1.3.4.7 1-1.8-1-2.9-.2-3.9.9-.6.6-1.4 1.2-2.1 1.5-2.2.8-2.6 1.3-2.2 3.6.1.4.1.7 0 1.1-.6-1.8-1.4-3.5-3.3-4.2-.7-.2-1.7.1-2.3.5-.7.6-.6 1.4.2 2.1.6.5 1.1 1.2 1.7 1.9-1.4-.2-2.6-.5-3.9-.7-.3 0-.7.1-.9.3-1.1 1.5-2.7 1-4.1.8-2.1-.2-3.1 1.1-2.3 3 1 2.4 1.6 2.8 4.1 2.3.4-.1.9.1 1.3.2 0 .2 0 .4.1.6-.6.1-1.2.5-1.8.4-1.5-.3-2.9-.7-4.3-1.1-1.9-.6-2.2-.4-2.6 1.6.5.4 1.1.8 1.4 1.3.6.9.9 2.1 2.5 1.3.3-.1 1 .7 1.6 1 1.3.9 2.6 1.9 4.5 1.7-.1-.8-.1-1.5-.2-2.4 1.1-.4 2.3-.8 2.4-2.5 0-.4 1.4-.7 2.1-1.2 1.2-.7 2.3-1.4 3.8-2.3 1.1.8 2.6 2.4 5 2.2 0-1.5 2.4-2.9-.1-4.4.1-.6.3-1.2.4-1.8.8-.2 1.7-.6 2.6-.7.5-.1 1.1.1 1.6.3 2.6 1.6 2.6 1.6 5-.1 1.4 1.3 1.4 1.8.3 3.1-1.1 1.3-2.1 2.2-4.2 1.3-1.1-.5-2.9.7-4.3 1.3-.1 0 .5 1.6.9 2.9-1.9 2.6-4.9 4.5-8.4 5.9-.5.2-1.1.3-1.5.7-.4.4-1.1 1.3-.9 1.5.3.6 1 1.1 1.7 1.3.6.2 1.3-.1 2-.2.5-.1 1.2-.3 1.6-.2 3.5 1.2 5.2-1.5 7.3-3.4 2.1-1.9 4.5-3.5 6.9-5 1.4-.9 3.1-1.3 4.6-2.1 3.1-1.7 6.5-2.1 9.9-2.8.3-.1.8.1 1.1.3 1.3 1 4.4 1.1 5.5 0 .8-.7 1.2-1.7 1.9-2.6.2-.3.6-.7.9-.7 2-.1 3.9 0 5.7 0-.3 1.5-.7 3.2-.8 4.9-.1 1.5 1 2.6 2.5 2.8 2.1.2 4.2.5 6.2.6.8 0 1.6-.6 2.5-.8.6-.2 1.2-.1 1.8-.2.9-.1 1.9-.1 2.8-.2.9-.1 1.8-.3 2.7-.4 1.4-.2 2.7-.3 4.1-.4.3 0 .7-.2.8-.1 1.7 1.7 3.9.7 5.3.1 3.1-1.4 6.6-2.1 9.1-4.9 2.1-2.3 4.6-4.2 6.7-6.5 1.8-1.9 3.4-4 5.2-6 1.5-1.7 3.1-3.4 4.8-5 2.3-2.2 4.6-4.3 7.1-6.4.9-.8 2.2-1.2 3.3-1.8.5-.3 1.1-.4 1.4-.8 1.1-2 3.1-2.7 4.7-4 .3-.2.5-.5.8-.8 1-.8 1.9-1.8 3-2.4 2.8-1.4 5.3-3.1 7.7-5 .7-.6 1.7-.8 2.6-1.1 2.2-.8 4.4-1.6 6.7-2.2 2.4-.6 4.8-1.1 7.2-1.5 3.3-.5 6.7-.6 9.9-1.4 2.2-.5 4.1-.6 6.1.6.8.5 1.8.4 2.7.5 1.5.2 2.7.9 3.9 2 1.9 1.7 4.5 1.9 7 2 1 0 2 .5 3 .6 1.4.2 2.9.4 4.3.3 1.8-.2 3.5-.9 5.2-1.2.4-.1 1 .4 1.5.5 1 .2 2.1.3 3.1.4.7 0 1.5-.1 2.3-.2h2.6c.1.2.2.7.4 1.4-1 .8-2.2 1.4-3 2.5-.4.6 0 1.7.1 2.9-1.3 1.1-2.6 4.2-2.1 5.1-.8 1-1.4 1.9-2.1 2.7-.2.3-.5.5-.8.8-1 .8-1.5 1.6-.7 2.8.6.8.7 1.6-.6 2-.3.1-.4.6-.6 1-.1.4-.1 1.2-.2 1.3-2 .1-1.9 2.2-2.9 3.2-.8.7-1.4 1.3-1.3 2.5 0 .8-.3 1.6-.3 2.2-.9-.1-1.9-.4-2.6-.1-1.3.5-1 1.8-.9 2.9 0 .5 0 1.3-.3 1.5-1.9 1-1 2.4-.7 3.7.2.6.4 1.3.7 2-3.8 0-4.2.8-3.3 2.2-1.5.2-1.8 1.3-1.6 3.6.1 1.1.7 2.4-.9 3.2-1.3-.5-1.4-3.5-3.6-1.8-1.5 1.1.1 2 .1 3.3-1.7.5-2.2 1.8-2.1 3.8.1 1-1.1 2.1-1.7 3-.1.1-.7.1-1-.1-1.6-.8-2.9-.2-2.9 1.6 0 2.6-1.2 4.8-2.3 7.1-.1.3-.4.6-.6.9-1.2-.6-2.3-1.8-3.3-.4-.6.8-.8 1.8-1.1 2.7-.5 1.3-.9 2.6-1.3 3.9-.9-.5-1.6-1.3-1.9-1.1-.6.3-1 1-1.3 1.7-.4.9-.6 2-2 2-.4 0-.9.6-1.2 1-.9 1.4-1.8 2.8-2.7 4.3-.5.8-1 .8-1.7.1-.4-.4-1.4-.7-1.8-.5-.5.3-.6 1.2-.8 1.8-.2.5-.5 1.4-.7 1.3-2.5-.1-2.9 2.1-3.8 3.5-1 1.5-2.4 2.8-4.1 3.1-2.6.5-3.7 2.4-5 4.2-.3.3-.9.8-1.2.7-2.2-.7-3.4.8-4.8 1.9-.8.6-1.6 1.4-2.5 1.9-2.3 1.3-4.6 2.4-6.9 3.6-.6.3-1.1.9-1.3 1.5-.9 2-2.4 2.5-4.4 2.9-2.9.6-6-1-8.6.9-1.1.8-2.1 1.7-3.1 2.5-.4.3-.9.5-1.4.5-.9 0-1.8-.2-2.8-.3-1.2-2-2.6-2-4.6-.7-1.2.8-2.7 1.7-4.6.9-1.1-.5-2.4-.5-3.5.5-.6.5-1.6.6-2.4.8-.9.2-1.5.1-2.1-.8-.2-.3-1.2-.5-1.5-.3-2.1 1.4-4.3.5-6.4.3-1.2-.2-2.4.1-3.6-.8-.3-.3-1.5.2-2.1.5-2.1 1.2-4.9.7-6.3-1.3-.6-.9-1.5-.9-2.1.1-1.1 1.9-1.1 1.8-3.1.8-1.4-.8-2.9-1.6-4.7-.7-.3.1-.8.1-1.1-.1-1.3-.8-2.5-1.7-3.8-2.6-.2-.1-.3-.4-.4-.6-.5-1.3-1.1-1.4-2.2-.7-1 .6-2.1 1-3.3 1.6-.1-2.2-1.1-2.4-3-1.8-.7.2-2.1-.9-2.7-1.8-.6-.9-.8-2.1-1-3.3-.3-2.1-1.4-2.8-3.5-2.4-1.2.2-2.5.2-3.8.4-.5.1-1.2.6-1.4 1.1-.8 1.6-1.8 2.1-3.4 1.6-.8-.3-1.8-.3-2.4-.7-.6-.4-1-1.2-1.2-1.9-.1-.3.3-.9.2-1.3-.1-.5-.5-1-.7-1.5-.5.3-1.5.8-1.4 1 .4 2-1.3 1.8-2.3 2.3-.6.3-1.3.3-2.1.5 0 0-.1-.1-.1-.2-.2-.7-.3-2-.5-2-.9-.1-2.1 0-2.8.5-1.1.7-1.9.7-3 .1-.9-.5-1.9-.6-2.9-.9-.4-.1-1-.2-1.2-.5-1.1-1.7-2.5-1.4-4.3-.8v-4.8c1.7.9 2 .3 2.1-1.2.2-2.2.8-4.4 1.2-6.6 0-.2.2-.4.3-.5.5-.5 1.4-.8 1.6-1.3.2-.6-.3-1.5-.6-2.4 1.2.2 2.1.2 2.6 1.7.3 1.1 1.3 2.5 2.1 2.7 1.6.3 2.6-1.4 3.2-2.6.8-1.6 1-3.4 1.5-5.2.1-.4.3-.7.5-1 .7-.9 1.4-1.8 2-2.8.2-.3.4-.6.5-.9.4-.8.9-1.5 1-2.3.3-1.6.8-1.9 2.4-1.9.9 0 2-.4 2.5-1 .7-.9-.3-2.2-1.7-2-2.8.4-5.6.9-8.4 1.4-.2 0-.5.1-1 .1.3-.5.6-.8.6-1.1-.1-.7-.2-1.4-.6-1.9-.2-.3-1.1-.1-1.6.1-3.4 1.3-6.9 2.6-10.7 1.9-1.2-.2-2.5-.3-3.6 0-1.3.3-2.2 0-3.2-.7-1.5-1-3-1.9-4.4-2.9-.6-.4-1.1-1-1.6-1.6-1.1-1.3-1.7-1.3-2.5.2-.1.2-.2.4-.4.5-.7.6-3.9.7-4.7.2-.5-.3-1-.7-1.5-.7s-1.2.5-1.3.9c-.5 2.6-1.2 3.2-3.8 3.1-1.1-.1-2.3-.4-3.5-.6v-2.6c.4-.9.8-1.6 1.1-2.4.2-.6.4-1.3.5-1.9.2-.9.2-1.6-.8-2-1.2-.5-1.3-1.7-.1-2.1 1.3-.5 1.4-1.4 1.4-2.3-.1-1.6.5-2.4 2.4-2.4-.1-1.6-.6-3.3-.1-4.7.6-1.8.6-4 2.6-5.1.4-.2.7-.6 1-1 .6-.8.8-1.6-.4-2.1-.6-.3-1.2-.7-1.7-1 .1-.8.2-1.4.4-2.3h.9c1 0 1.5-.5 1.3-1.5-.3-1.6-.6-3.2-.9-4.5.9.7 1.9 1.6 3 2.3.3.2 1 .2 1.4 0 .2-.1.4-.8.3-1.2-.7-2.1-1.5-4.1-2.2-6.3l1.6-.8c.4.8.8 1.7 1.2 2.6.3.6.5 1.4.9 1.9.3.3 1 .3 1.5.2.1 0 .3-.7.3-1.1 0-1.1-.1-2.2-.1-3.3 0-1.1-.6-1.5-1.6-1.8-2-.5-2.2-1-1.4-2.9.5-1.3.9-2.6 1.3-3.9 1 .2 1.9.7 2.6.5.5-.2.9-1.2 1.2-1.9.9-2.7.8-3-1.3-4 1-1 1.9-1.9 2.8-2.9.3-.3.3-.9.2-1.4-.2-.9-.4-1.5.8-2.1 1.2-.6.9-1.8.1-3.3 1.1-.1 2-.3 2.9-.4.6-.1 1.2-.2 1.9-.3-.1-.8-.1-1.6-.4-2.3-.3-.6-1-1-.9-1.5.4-1 .6-2.1 1.3-2.9 1-1.2 1.5-2.3.9-3.7 0 0 .1-.2.2-.2 1.8-1 2.5-2.9 3.6-4.5.4-.6.6-1.5.4-2.1-.3-1.2-.4-2 .9-2.9.9-.7 1.7-2.2 1.8-3.4.3-2.7 2.1-4.2 4-5.8.6-.5 1.2-.9 1.8-1.5 1.9-2 4.1-3.1 6.9-3.4 1.6-.2 3.1-1 4.6-1.4.8-.2 1.8-.1 2.6-.3 2.9-.9 5.8-.9 8.7-.1.6.2 1.5-.4 2.1-.8.5-.3.7-1 1.3-1.9.9 1 1.6 1.8 2.4 2.6.4.3 1.1.4 1.6.4 1.2 0 2.4-.2 3.6-.1 1.4.2 3 .3 4.2 1 1.1.6 1.5.4 2.1-.4 2.1.9 4.2 1.8 6.2 2.7.8.4 1.6 1.1 2.2 1.8 1.7 1.9 3.4 1.3 5.2.2.9-.6 1.7-1.4 2.7-1.8 1.1-.4 1.5-1.2 1.6-2.2.1-.6.1-1.5-.2-1.7-.5-.4-1.4-.4-2-.3-.8.2-1.4.8-2.4 1 .7-.7 1.3-1.5 2.1-2.4 1.9.7 2.7.2 2.4-1.7.8.2 1.6.6 2.5.7.4 0 .8-.4 1.3-.7-.2-.4-.4-1.1-.7-1.1-.8-.2-1.8-.2-2.6-.2-.3 0-.4.8-.5 1.3zm100.8 50.3c-2 .6-4.1 1.3-6.2 2 1.8 2.2 2.9 2.5 5.4 1.3 1.5-.7.8-2.1.8-3.3.6 0 1.3 0 2-.1.2 0 .2-.7.3-1.1-.7-.1-1.4-.1-2.2-.2-.1.5-.1 1-.1 1.4zm-67.3 48.7s-.4-.2-.5 0c-1.1.9-2.1.8-3.3.1-.2-.1-1 .4-1.4.8-.8.7-1.3 1.6-2.2 2.1-2.2 1.2-2.2 1.1-1.4 3.4.1.4.2.8.2 1.1 0 1.4.7 1.7 1.9 1.3 2.8-.9 3.6-.3 3.6 2.8 0 1.1.5 2.9 1 3 1.9.4 2.9 2.2 2.7 3.1-.3 2.6 1.8 3.8 2.6 5.6 1.7 4.1 3.2 8.3 4.9 12.4.2.5.7 1 1.1 1.5.4-.5 1.1-.9 1.2-1.4.3-2.1.2-4-1-6-1.4-2.6-2.3-5.4-3.4-8.2-.6-1.3-.9-2.8-1.9-3.8-1.6-1.8-1.8-3.8-2-6 0-.4-.1-1.1-.3-1.2-1.6-.6-1.4-2.4-2.2-3.5-.2-.3 0-1.2.3-1.6.3-.3 1.1-.4 1.5-.2 1.2.4 1.9 2.8 1.4 4-.2.4-.1 1.4 0 1.4 1 .2 2.1.4 3.1.2.3-.1.7-1.4.5-1.9-.3-.9-1.2-1.7-1.7-2.6-.3-.7-.5-1.5-.3-2.2.1-.5 1-1.1 1.4-1 .7.2 1.4.8 1.8 1.4.7 1.2 1 2.5 1.6 3.7.8 1.8 1.7 3.5 2.7 5.2.2.3.9.6 1.2.5.3-.1.7-.7.6-1.1 0-.8-.2-1.7-.5-2.4-.4-1-1.5-2-1.3-2.8.2-1.4-.5-2.3-1.2-3.3-.9-1.2-1.5-2.5-.3-4 1.5.1 3.1.2 4.6.3.2 0 .7-.4.7-.6-.1-1.8.9-1.8 2.3-1.6.7.1 1.5-.2 2.2-.4-.2-.7-.4-1.3-.6-2-.1-.6-.4-1.4-.1-1.7.7-.7 1.6-1.2 2.5-1.7.9-.6 1.9-1.1 3.1-1.8-.7-.4-1.2-.7-1.6-1-.7-.6-3-2.2-3.7-2.3-1.1 0-2.1.1-2.4 1.5-.1.4-.3.7-.5 1.2-1.4-1.3-2.8-1.2-4.3-.5-2.2.9-2.9 3-1.7 4.7.3.4.4 1.3.2 1.6-.4.4-1.1.7-1.7.7-1.8.1-3.1-1.2-4.6-2-.4-.2-1.1-.5-1.4-.3-.3.2-.4.9-.4 1.4-.1 1 0 2 0 2.8-.9-.2-1.5-.6-1.9-.4-.5.4-.7 1.1-1.1 1.7zm-14.2 11.3c.3.7.4 1 .5 1.3.5.8 1.2 1.6 2.1.9.7-.5 1.4-1.5 1.4-2.3.1-1.6-.7-3.2.2-4.8.2-.3-.1-1.2-.4-1.5-.8-.8-1.8-1.5-2.8-2-1-.5-1.9.1-2.1 1.2-.4 2.4-1.2 3.2-3.7 3.4-1 .1-1.8.4-2 1.6-.1.4-.9.6-1.4.8-.4.2-.9.2-1.2.5-.1.1 0 .8.1.9.4.1.9.1 1.4.1.5 0 1 0 1.5.1 0 .2.1.5.1.8-2.2-1-3.5.1-4.7 1.8-1.4-1.7-1.3-4.4-4-4.1-.2-1.1-.4-1.9-.6-2.8-.1-.3-.4-.9-.5-.9-.4 0-.9.2-1.1.5-.3.3-.4 1-.8 1.3-.5.5-1.2 1.1-1.8 1-2.5-.4-4.5.8-6.3 1.9-.8-.5-1.7-1.5-2.4-1.5-1.2.1-1.6 1.1-.5 2.2h-1.5c-.1-.9-.2-1.7-.3-2.5-.1-1.3-1.1-1.7-2.2-1.9-.5-.1-1.4.1-1.5.4-.3.9-.9 1.2-1.8 1.1-.5 0-1.1-.3-1.6-.3-1.4-.1-3 .9-4.3-.3-.1-.1-.3.1-.5.1-1.2 0-2.4-.1-3.6 0-1.3.1-2.7.3-4 .4-2.6.2-.9 2.2-1.1 3.2-.4 1.9.7 2.6 2.5 2 1.7-.5 3.2.4 3.4 2.1.2 1.1.8 1.5 1.9 1.2 1.3-.4 2-1.1 1.9-2.9.6.8 1 1.2 1.3 1.8.6 1 1.1 1.4 2.3.6 1.8-1.2 3.8-1.4 6-.6 1.6.6 3.4.7 5.2 1.1.1.2.5.7.8 1.2 1-.8 1.9-1.5 2.7-2.1 1.3-.2 2.5-.4 3.7-.6 2-.4 2-.4 1.7-2.7.5.9.6 1.4 1 1.8.3.3 1 .7 1.3.6 2.3-1.5 4.7-.7 7-.7-.1.1-.2.3-.3.4.6.7 1.1 1.4 1.7 2.2.5-.8 1.1-1.6 1.7-2.5 1.2.1 2.6.5 4 .4 1.9-.3.5-2.5 1.6-3.9zm75.1-50.4c-.4-.2-.8-.3-1-.6-.9-1.2-1.8-1.9-2.4.2 0 .1-.4.2-.5.2-1.7-.1-2.6 1.1-3.5 2 .1.9.5 1.9.3 2.1-.6.5-1.5.7-2.2.8-1.1.1-2.2-.3-3.2-.2-.9.1-2.1.4-2.4 1-.6 1.2-.6 2.6-.8 4-.1.5.2 1.1.4 1.7.5-.2.9-.4 1.1-.5.8.7 1.5 1.4 2.1 1.8-.4 1-1.1 2.1-1.1 3.1 0 .5 1.5.9 2.2 1.3.7-1.9 1.3-3.4 1.8-4.9 2.1 1 2.3 1.6 1.4 3.3-.2.4-.3 1.2 0 1.5.2.3 1.2.6 1.4.4 1.5-1.3 3.2-2.6 4.3-4.2.7-1.1.5-2.8.6-4.3h2.9c-.9-1.7-1.6-3.1-2.3-4.5.1-.1.2-.1.2-.2.4.4.9.7 1.7 1.4.7-1.9 1.3-3.5 1.8-5.2.1-.4 0-1.2-.2-1.3-.8-.3-1.6-.4-2.5-.6 0 .5-.1 1-.1 1.7zM60.4 144.5c-1.8-2.7-1-5.2-.4-7.8.3-1.5.2-3.2.1-4.8 0-.3-.8-.5-1.2-.8-.3.4-.6.9-.8 1.3-.2.7 0 1.9-.4 2.1-1.9.9-1 2-.7 3.4.2 1.1-.4 2.4-.9 3.4-.1.2-1.5-.3-2.3-.2-1 .1-2.2.3-2.9.9-.6.6.5 4.1 1.3 4.7 1.2.8 2 .1 2.9-.6.2-.2.6-.2.9-.3 1.4-.4 2.8-.8 4.4-1.3zM22.5 93.3c-.3 0-.6 0-.7.1-.6.3-1.4.6-1.7 1.1-.2.4 0 1.5.3 1.7.5.3 1.3.1 2 .1.5 0 1 .1 1.4 0 .6-.1 1.4-.2 1.6-.6.5-.7.6-1.7.9-2.8.5-.3 1.4-.7 2.3-1.1 0-.2.1-.4.1-.6-1.3-.4-2.6-.8-3.8-1.2-.4 1.5-1.8 1.4-3 1.8.2.6.4 1 .6 1.5zm106.7-72.1c-.5.5-.8.7-1 1.1-.7 1.4-.3 2.6.5 4 1.3 2.3 2.1 4.9 3.2 7.3.3.6.7 1.2 1.2 1.6.2.2 1.1-.1 1.1-.3.1-.6.1-1.2-.1-1.8-.7-1.9-1.6-3.7-2.3-5.5-.6-1.7-1.1-3.4-1.6-5.1-.2-.4-.6-.7-1-1.3zM54.3 138c-.9-.7-1.6-1.4-2.4-1.9-.2-.2-.9-.2-1 0-1.3 1.5-2.5 3-3.7 4.5-.2.2-.2.7-.1 1 .1.4.4.8.7.9.4.1 1.2 0 1.3-.2.3-1.1 1.2-1.4 2.1-1.9 1.1-.8 2-1.6 3.1-2.4zm-25.1-15.2c.2-.1.8-.2 1.1-.6.2-.3-.1-.9-.2-1.3-.3-.7-.8-1.3-1.1-2-.5-1-2.6-1.9-3.6-1.3-.4.2-.7.9-.7 1.3.2 2.2 1.9 3.8 4.5 3.9zM175 93.5c.1-.1.3-.1.4-.2-.5-.8-.9-1.5-1.4-2.3-.1-.1-.8 0-.8.1-.2.8-.3 1.7-.5 2.5l-.9 2.7c-.2.6-.5 1.2-.6 1.8 0 .2.5.6.6.6.5-.2.9-.6 1.4-.9.5-.4.9-.9 1.5-1.2.9-.5 1.2-1 .7-2-.3-.3-.3-.7-.4-1.1zm-31-71.6c-1.3-1.9-2.4-3.6-3.6-5.2-.1-.1-1 .1-1 .3-.2.4-.3 1.3 0 1.4 1.4.9 1.3 2.3 1.7 3.6.1.6 1 1.1 1.7 1.4 0 .1.6-.8 1.2-1.5zM47.2 154.5c-.4 1.4-.8 2.8-1.1 4.2-.1.2.5.9.5.8 1-.4 2.7-1 2.7-1.4-.2-1.7-.9-3.4-1.5-5.1-.1-.2-.9-.1-1.3-.1-.1 0-.3.3-.4.6.4.3.7.6 1.1 1zm-6.4.4c.1.5.2 1.3.4 2.1.1.3.4.7.7.7.2.1.8-.2.8-.4 0-1.5-.1-3-.3-4.5 0-.2-1.5-.3-2.2-.1-.5.1-.8.8-1.2 1.2.4.4.9.6 1.8 1zm23.6-21.6c-.1-.5-.1-.8-.3-1.1l-.9-1.8c-.8.4-1.7.8-2.3 1.4-.1.1.6 1.1.9 1.7.1.1.2.3.3.4.4.3 1 .8 1.2.7.5-.4.8-1 1.1-1.3zm93.1-30c-1-.7-1.6-1.1-2.1-1.6-.7 1-1.4 1.9-2 3-.1.1.8 1 .9 1 1-.6 1.9-1.4 3.2-2.4zm-38.9-82.6c-.7.7-1.5 1.4-1.4 1.6.2.7.9 1.6 1.4 1.6.6 0 1.3-.8 1.9-1.2-.5-.6-1.1-1.2-1.9-2zm5.1 126.1c-.8-.5-1.3-1.1-1.8-1.1-.4 0-.9.5-1.4.8.6.8 1.1 1.6 1.7 2.5.5-.6.9-1.3 1.5-2.2zm-54.4-5.3c-.9-.8-1.3-1.1-1.8-1.5-.5.6-1.1 1.2-1.6 1.9 0 .1.8 1 1.1.9.8-.1 1.3-.6 2.3-1.3zm88.9-33.3c.8-.5 1.3-.9 1.9-1.3-.4-.4-1-1.3-1.2-1.2-.7.3-1.4.9-2 1.3.3.4.7.7 1.3 1.2zm41.5-61.3c.6-.8 1.3-1.3 1.2-1.6-.1-.5-.9-1.4-1.2-1.3-.6.1-1 .8-1.5 1.3.4.4.8.9 1.5 1.6zM69.1 137.5c-.7-.6-1.1-.9-1.5-1.3-.3.4-1 .8-.9 1.2.1.6.5 1.2.8 1.7.5-.4.9-.9 1.6-1.6zm36.8-9.7c-.7.7-1.2 1.1-1.7 1.5.5.3 1.1.9 1.6 1 .4 0 .9-.6 1.4-1-.4-.4-.7-.8-1.3-1.5zM20.7 74.7c-.5.5-1 1-1 1.1.5.7 1 1.3 1.6 1.9.3-.4 1-.9 1-1.1-.4-.6-1-1.1-1.6-1.9zm50 88.3c-.4.7-.8 1.2-.7 1.3.4.7 1 1.2 1.5 1.9.3-.3.9-.8.9-.9-.4-.8-1-1.4-1.7-2.3zm90.7-56.6c.5-.6 1.1-1 1.2-1.5.1-.7-.2-1.4-.5-2 0-.1-.9.2-1.2.2.2 1.1.3 1.9.5 3.3zm6.3-10.6c-.7.8-1.1 1.3-1.6 1.9.4.3.9.9 1 .8.6-.3 1.1-.8 1.4-1.3.1-.2-.4-.7-.8-1.4zM29.4 72.4c-.7-.5-1-1-1.5-1.1-.2-.1-.8.7-.8.9.1.5.5.9.9 1.4.3-.3.7-.7 1.4-1.2zm82.9-58.7c-.6-.4-.9-.7-1.2-1-.3.4-.7.8-.8 1.3-.1.2.6.8.7.8.4-.2.7-.6 1.3-1.1zM23.8 69.5c-.7-.4-1.1-.9-1.6-.9-.3 0-.6.6-.9.9.4.3.8.7 1.2.8.3.1.7-.4 1.3-.8zm40.9-1.7c-.1-.2-.2-.5-.3-.7-.4-.4-.8-.8-1.2-1.1-.1 0-.8.7-.7.8.3.5.7 1 1.2 1.3.1.1.6-.2 1-.3zm69.9-48.6c-.5.7-.9 1.1-1 1.5-.1.2.6.9.7.8.4-.2 1-.5 1.1-.9 0-.2-.4-.7-.8-1.4zM200 129.3c-.4.8-.7 1.2-.7 1.6 0 .3.4.6.6 1 .3-.4.7-.7.9-1.2.1-.3-.3-.7-.8-1.4zM85.2 145.7c.5-.8.8-1.3 1.2-1.8-.3-.2-.7-.6-.8-.5-.5.3-.9.7-1.3 1.1-.1.1.4.6.9 1.2zM177 99.1c-.8-.4-1.2-.8-1.6-.8-.3 0-.6.5-.9.7.3.3.6.8 1 .9.4.1.8-.3 1.5-.8zM58.7 160.7l.3-.6c-.3-.1-.7-.4-1-.3-.4.1-.9.5-1.1.9-.1.1.5.9.6.9l1.2-.9zm87-36.2c-.5.4-.8.7-1.1.9.4.3.8.7 1.3 1 .1.1.8-.5.7-.6-.2-.3-.5-.7-.9-1.3zM25.8 109.6v-1c-.7-.1-1.3-.1-2-.2 0 .3 0 1 .1 1 .6.2 1.2.2 1.9.2zm105.3-57.1c-.2-.1-.4-.3-.7-.4-.3.4-.7.8-1 1.2.3.3.7.6 1 .8.3-.5.5-1.1.7-1.6zm23.3-24.9c-.6-.4-1.1-.9-1.2-.8-.4.3-.7.7-.9 1.2-.1.1.5.7.6.7.4-.3.8-.6 1.5-1.1zm1.8 84c.5-.6.9-.9 1-1.3 0-.3-.4-.6-.7-.9-.3.3-.8.6-1 1-.1.2.3.6.7 1.2zm71-35.8c-.5.6-1 1-.9 1.2.2.4.7.8 1.1 1.1 0 0 .7-.5.6-.7-.1-.5-.4-.9-.8-1.6zM196 46.7c-.5-.5-.7-.8-1-1.1-.4.4-.8.7-1.1 1.1-.1.1.4.8.6.8.5-.1.9-.4 1.5-.8z" fill="#FF326A"/><path d="M118 78.2c-1.2 1.1-1.6 1.1-2.2-.3-.4-.8-1.1-1.4-1.5-2.2-.4-1-.7-2-1-3.1 1-.5 1.7-.4 2.1.8.4 1 1.1 1.8.9 3-.1.4 1 1.1 1.7 1.8zm23.7-7.7c-.8.7-1.5 1.7-2.5 2-.7.2-1.7-.5-2.6-1.1 1.6-.5 3.1-1.1 4.7-1.6.1.2.3.5.4.7z" fill="#FF326A"/><path d="M97.1 21.5c.1-.4.2-1.3.3-1.3.9-.1 1.8 0 2.6.2.3.1.5.7.7 1.1-.4.2-.9.7-1.3.7-.7-.1-1.5-.5-2.3-.7 0-.1 0 0 0 0z" fill="#ffffff"/><path d="M103.6 80.6c-.3 2.3-1.6.8-2.3 1.2.1-2 1.4-.6 2.3-1.2z" fill="#FF326A"/><path d="M130.6 120.5c.4-.6.6-1.3 1-1.4.4-.2 1 .2 1.9.4v-2.8c0-.5.1-1.2.4-1.4.3-.2 1 0 1.4.3 1.5.8 2.8 2 4.6 2 .6 0 1.4-.3 1.7-.7.2-.3.1-1.2-.2-1.6-1.2-1.7-.4-3.8 1.7-4.7 1.5-.7 2.9-.8 4.3.5.2-.5.4-.8.5-1.2.3-1.4 1.3-1.5 2.4-1.5.7 0 3.1 1.6 3.7 2.3.4.3.9.6 1.6 1-1.2.7-2.2 1.2-3.1 1.8-.9.5-1.8 1-2.5 1.7-.3.3 0 1.1.1 1.7.1.7.4 1.3.6 2-.7.1-1.5.5-2.2.4-1.3-.2-2.4-.2-2.3 1.6 0 .2-.5.6-.7.6-1.6 0-3.2-.2-4.6-.3-1.2 1.5-.6 2.8.3 4 .7 1 1.4 1.8 1.2 3.3-.1.9 1 1.8 1.3 2.8.3.8.5 1.6.5 2.4 0 .4-.3 1-.6 1.1-.3.1-1-.2-1.2-.5-1-1.7-1.8-3.4-2.7-5.2-.6-1.2-.9-2.6-1.6-3.7-.4-.6-1.1-1.2-1.8-1.4-.3-.1-1.3.6-1.4 1-.2.7 0 1.6.3 2.2.4.9 1.3 1.6 1.7 2.6.2.5-.2 1.9-.5 1.9-1 .2-2.1 0-3.1-.2-.1 0-.2-1 0-1.4.5-1.2-.2-3.6-1.4-4-.4-.2-1.2-.1-1.5.2-.3.4-.5 1.3-.3 1.6.9 1.1.6 2.9 2.2 3.5.2.1.3.8.3 1.2.2 2.1.4 4.2 2 6 .9 1 1.3 2.5 1.9 3.8 1.1 2.7 2 5.6 3.4 8.2 1.1 2 1.2 4 1 6-.1.5-.8.9-1.2 1.4-.4-.5-.9-.9-1.1-1.5-1.6-4.1-3.1-8.3-4.9-12.4-.8-1.9-2.9-3-2.6-5.6.1-1-.9-2.7-2.7-3.1-.6-.1-1-2-1-3 0-3.1-.7-3.7-3.6-2.8-1.3.4-1.9.1-1.9-1.3 0-.4-.1-.8-.2-1.1-.9-2.3-.9-2.2 1.4-3.4.8-.5 1.4-1.4 2.2-2.1.4-.4 1.1-.9 1.4-.8 1.2.7 2.2.8 3.3-.1.2-.5.6-.3.6-.3zm-14.2 11.3c-1.1 1.4.3 3.6-1.7 3.9-1.3.2-2.7-.2-4-.4-.6.8-1.1 1.6-1.7 2.5-.6-.7-1.1-1.4-1.7-2.2.1-.1.2-.3.3-.4-2.3.1-4.8-.8-7 .7-.2.1-.9-.3-1.3-.6-.3-.4-.5-.9-1-1.8.3 2.3.3 2.3-1.7 2.7-1.2.2-2.4.4-3.7.6-.7.6-1.7 1.4-2.7 2.1-.3-.5-.7-1-.8-1.2-1.8-.4-3.6-.5-5.2-1.1-2.2-.8-4.2-.6-6 .6-1.2.8-1.7.4-2.3-.6-.3-.5-.7-1-1.3-1.8.1 1.7-.6 2.5-1.9 2.9-1.1.3-1.7-.1-1.9-1.2-.3-1.7-1.7-2.6-3.4-2.1-1.9.6-2.9-.1-2.5-2 .2-1.1-1.5-3 1.1-3.2 1.3-.1 2.7-.4 4-.4 1.2-.1 2.4 0 3.6 0 .2 0 .4-.1.5-.1 1.4 1.2 2.9.2 4.3.3.5 0 1.1.3 1.6.3.8.1 1.4-.2 1.8-1.1.1-.3 1-.5 1.5-.4 1 .2 2 .6 2.2 1.9.1.8.2 1.6.3 2.5h1.5c-1.1-1.1-.7-2.1.5-2.2.7-.1 1.5.9 2.4 1.5 1.8-1.1 3.7-2.3 6.3-1.9.5.1 1.3-.6 1.8-1 .3-.3.4-.9.8-1.3.3-.3.7-.5 1.1-.5.2 0 .4.5.5.9.2.8.4 1.7.6 2.8 2.7-.3 2.6 2.4 4 4.1 1.2-1.7 2.5-2.7 4.7-1.8 0-.2-.1-.5-.1-.8-.5 0-1 0-1.5-.1-.5 0-.9 0-1.4-.1-.1 0-.2-.8-.1-.9.3-.2.8-.3 1.2-.5.5-.2 1.3-.5 1.4-.8.3-1.2 1-1.5 2-1.6 2.6-.2 3.3-1 3.7-3.4.2-1.1 1.1-1.7 2.1-1.2s1.9 1.2 2.8 2c.3.3.6 1.1.4 1.5-.9 1.6-.2 3.2-.2 4.8 0 .8-.7 1.8-1.4 2.3-.9.7-1.6-.2-2.1-.9 0-.3-.1-.6-.4-1.3zm75.1-50.4c.1-.7.1-1.2.2-1.8.8.2 1.7.3 2.5.6.2.1.3.9.2 1.3-.5 1.7-1.1 3.3-1.8 5.2-.8-.7-1.3-1.1-1.7-1.4-.1.1-.2.1-.2.2.7 1.4 1.5 2.8 2.3 4.5h-2.9c-.2 1.6.1 3.3-.6 4.3-1.1 1.6-2.8 2.9-4.3 4.2-.2.2-1.2-.1-1.4-.4-.2-.3-.2-1.1 0-1.5.9-1.7.7-2.3-1.4-3.3-.6 1.5-1.1 3.1-1.8 4.9-.7-.4-2.2-.9-2.2-1.3 0-1 .7-2.1 1.1-3.1-.5-.5-1.3-1.1-2.1-1.8-.2.1-.7.3-1.1.5-.1-.6-.4-1.1-.4-1.7.1-1.3.2-2.8.8-4 .3-.6 1.6-.9 2.4-1 1-.1 2.1.2 3.2.2.8-.1 1.7-.3 2.2-.8.3-.2-.1-1.2-.3-2.1.8-.9 1.7-2.1 3.5-2 .2 0 .5-.1.5-.2.6-2.1 1.4-1.4 2.4-.2.1.4.5.5.9.7zm-3.2 10.8v-.3c-.6-1.4-1.3-2.8-2-4.3-.4.5-.8 1.1-1.2 1.5 1.3 1.1 2.2 2.1 3.2 3.1zM60.4 144.5c-1.7.5-3 .9-4.3 1.3-.3.1-.7.1-.9.3-.9.7-1.8 1.4-2.9.6-.8-.5-2-4.1-1.3-4.7.7-.6 1.9-.8 2.9-.9.8-.1 2.2.5 2.3.2.5-1 1.1-2.3.9-3.4-.3-1.4-1.2-2.5.7-3.4.4-.2.2-1.4.4-2.1.1-.5.5-.9.8-1.3.4.3 1.2.5 1.2.8.1 1.6.2 3.3-.1 4.8-.6 2.6-1.5 5.1.3 7.8zM22.5 93.3c-.2-.5-.4-.9-.6-1.5 1.2-.4 2.7-.3 3-1.8 1.3.4 2.6.8 3.8 1.2 0 .2-.1.4-.1.6-.9.4-1.7.9-2.3 1.1-.3 1.1-.5 2.1-.9 2.8-.2.4-1.1.4-1.6.6-.5.1-.9 0-1.4 0-.7 0-1.5.2-2-.1-.3-.2-.5-1.3-.3-1.7.3-.5 1.1-.8 1.7-1.1.1 0 .4 0 .7-.1zm106.7-72.1c.4.5.7.9.9 1.3.6 1.7 1 3.5 1.6 5.1.7 1.9 1.6 3.7 2.3 5.5.2.5.2 1.2.1 1.8 0 .2-.9.5-1.1.3-.5-.4-.9-1-1.2-1.6-1.1-2.4-1.9-5-3.2-7.3-.8-1.4-1.2-2.6-.5-4 .3-.3.7-.6 1.1-1.1z" fill="#ffffff"/><path d="M54.3 138c-1.1.8-2.1 1.6-3.1 2.2-.9.5-1.8.7-2.1 1.9-.1.2-.9.3-1.3.2-.3-.1-.6-.5-.7-.9-.1-.3 0-.7.1-1 1.2-1.5 2.4-3 3.7-4.5.2-.2.8-.1 1 0 .9.7 1.6 1.3 2.4 2.1zm-25.1-15.2c-2.6-.1-4.3-1.7-4.6-4 0-.4.3-1.1.7-1.3 1-.6 3 .3 3.6 1.3.4.7.8 1.3 1.1 2 .2.4.4 1.1.2 1.3-.2.5-.8.6-1 .7zM175 93.5c.1.4.1.8.3 1.1.5 1 .2 1.5-.7 2-.6.3-1 .8-1.5 1.2-.4.3-.9.7-1.4.9-.1.1-.7-.4-.6-.6.1-.6.4-1.2.6-1.8.3-.9.7-1.8.9-2.7.2-.8.3-1.7.5-2.5 0-.1.8-.2.8-.1.5.7.9 1.5 1.4 2.3 0 .1-.2.2-.3.2zm-31-71.6c-.5.6-1.1 1.6-1.3 1.5-.7-.2-1.5-.8-1.7-1.4-.3-1.3-.3-2.7-1.7-3.6-.2-.1-.1-1 0-1.4.1-.2 1-.4 1-.3 1.3 1.7 2.4 3.4 3.7 5.2zm53.8 49.9c.1 1.2.7 2.6-.8 3.3-2.4 1.2-3.6.9-5.4-1.3 2.2-.7 4.2-1.3 6.2-2zM47.2 154.5c-.4-.4-.7-.6-1.1-1 .2-.2.3-.5.4-.6.5 0 1.3-.1 1.3.1.6 1.7 1.3 3.4 1.5 5.1 0 .4-1.7 1-2.7 1.4-.1 0-.6-.6-.5-.8.3-1.5.7-2.9 1.1-4.2zm-6.4.4c-.8-.4-1.3-.6-1.8-.8.4-.4.7-1.1 1.2-1.2.7-.2 2.1-.1 2.2.1.3 1.5.3 3 .3 4.5 0 .1-.6.4-.8.4-.3-.1-.6-.4-.7-.7-.3-1-.4-1.8-.4-2.3zm23.6-21.6c-.3.4-.6 1-1.1 1.3-.2.1-.8-.4-1.2-.7-.1-.1-.2-.2-.3-.4-.3-.6-1-1.6-.9-1.7.7-.6 1.5-1 2.3-1.4.3.6.7 1.2.9 1.8.1.2.1.5.3 1.1zm93.1-30c-1.3 1-2.2 1.7-3.2 2.4-.1 0-1-.8-.9-1 .6-1 1.3-2 2-3 .6.5 1.1.9 2.1 1.6zm-38.9-82.6c.8.9 1.4 1.5 2 2-.6.4-1.3 1.2-1.9 1.2-.5 0-1.2-1-1.4-1.6-.2-.3.6-.9 1.3-1.6zm5.1 126.1c-.6 1-1.1 1.6-1.5 2.2-.6-.8-1.1-1.6-1.7-2.5.5-.3 1-.9 1.4-.8.6 0 1.1.6 1.8 1.1zm-54.4-5.3c-1 .7-1.6 1.2-2.2 1.4-.3.1-1.2-.9-1.1-.9.4-.7 1-1.3 1.6-1.9.4.3.8.7 1.7 1.4zm88.9-33.3c-.6-.5-.9-.8-1.3-1.2.7-.5 1.3-1.1 2-1.3.2-.1.8.8 1.2 1.2-.6.4-1.2.8-1.9 1.3zm41.5-61.3c-.7-.8-1.1-1.2-1.6-1.7.5-.5 1-1.2 1.5-1.3.3-.1 1.1.8 1.2 1.3.2.4-.5 1-1.1 1.7zM69.1 137.5l-1.6 1.6c-.3-.6-.8-1.1-.8-1.7 0-.4.6-.8.9-1.2.4.3.9.7 1.5 1.3zm36.8-9.7c.6.7.9 1.1 1.3 1.5-.5.4-.9 1-1.4 1-.5 0-1.1-.6-1.6-1 .5-.4.9-.8 1.7-1.5zM20.7 74.7c.6.7 1.2 1.3 1.6 2 .1.1-.6.7-1 1.1-.5-.6-1.1-1.2-1.6-1.9-.1-.2.5-.7 1-1.2zm50 88.3c.8 1 1.3 1.6 1.7 2.3.1.1-.6.6-.9.9-.5-.6-1.1-1.2-1.5-1.9-.1-.2.3-.7.7-1.3zm90.7-56.6c-.2-1.4-.3-2.2-.5-3.3.3-.1 1.1-.3 1.2-.2.3.6.5 1.3.5 2 0 .5-.6.9-1.2 1.5zm6.3-10.6c.4.6.9 1.2.9 1.3-.4.5-.9 1-1.4 1.3-.1.1-.7-.5-1-.8.3-.4.8-1 1.5-1.8zm30.2-24c0-.5 0-.9.1-1.4.7.1 1.5.1 2.2.2-.1.4-.1 1.1-.3 1.1-.7.2-1.4.1-2 .1-.1 0 0 0 0 0zm-168.5.6c-.7.5-1.1.9-1.5 1.2-.3-.5-.8-.9-.9-1.4 0-.3.6-1 .8-.9.5.1.9.6 1.6 1.1zm82.9-58.7c-.6.5-.9.9-1.3 1.1-.1 0-.7-.6-.7-.8.1-.5.5-.9.8-1.3.3.3.7.6 1.2 1zM23.8 69.5c-.6.4-1 .9-1.2.8-.5-.1-.8-.5-1.2-.8.3-.3.6-.9.9-.9.3.1.7.5 1.5.9zm40.9-1.7c-.4.1-.9.4-1.1.3-.5-.3-.9-.8-1.2-1.3 0-.1.7-.8.7-.8.5.3.8.7 1.2 1.1.1.2.2.5.4.7zm69.9-48.6c.4.7.9 1.2.8 1.5-.2.4-.7.7-1.1.9-.1 0-.7-.6-.7-.8.1-.5.5-.9 1-1.6zM200 129.3c.4.7.8 1.1.7 1.4-.1.4-.6.8-.9 1.2-.2-.3-.6-.6-.6-1 .1-.4.4-.8.8-1.6zM85.2 145.7c-.5-.6-1-1.1-.9-1.2.3-.4.8-.9 1.3-1.1.1-.1.5.3.8.5-.4.5-.7 1-1.2 1.8zM177 99.1c-.7.5-1.1.9-1.5.9-.4 0-.6-.6-1-.9.3-.3.6-.7.9-.7.4-.1.8.3 1.6.7zM58.7 160.7c-.4.3-.8.6-1.2.8-.1 0-.7-.8-.6-.9.3-.4.7-.7 1.1-.9.3-.1.7.2 1 .3-.1.3-.2.5-.3.7zm87-36.2c.4.5.7.9.9 1.4 0 .1-.6.6-.7.6-.5-.2-.9-.6-1.3-1 .3-.3.6-.5 1.1-1zM25.8 109.6c-.6 0-1.3 0-1.9-.2-.1 0-.1-.6-.1-1 .7.1 1.3.1 2 .2v1zm105.3-57.1c-.2.5-.5 1.1-.7 1.6-.3-.3-.7-.6-1-.8.3-.4.7-.8 1-1.2.3.1.5.3.7.4zm23.3-24.9c-.6.5-1 .8-1.4 1-.1 0-.7-.5-.6-.7.2-.4.5-.9.9-1.2-.1 0 .5.5 1.1.9zm1.8 84c-.4-.6-.8-1-.7-1.2.2-.4.6-.7 1-1 .3.3.7.6.7.9-.1.4-.5.7-1 1.3zm71-35.8c.4.7.7 1.1.8 1.6 0 .2-.6.7-.6.7-.4-.3-.8-.6-1.1-1.1-.1-.2.4-.7.9-1.2zM196 46.7c-.7.4-1.1.7-1.5.8-.1 0-.6-.7-.6-.8.3-.4.7-.8 1.1-1.1.3.3.6.6 1 1.1z" fill="#ffffff"/><path d="M188.3 92.2l-3.1-3.1c.3-.4.8-1 1.2-1.5.7 1.5 1.3 2.9 2 4.3-.1 0-.1.1-.1.3z" fill="#FF326A"/></svg>