<svg xmlns="http://www.w3.org/2000/svg" viewBox="0 0 112 133.2">
	<path fill="none" d="M104.2,8H8H104.2z"/>
	<path fill="#DD412B" d="M54.6,127.8c-0.5-0.3-12.7-6.3-25-16.6C12.9,97.2,4,81.8,4,66.7V4h104v62.5c0,14.9-8.7,30.3-25.2,44.5
		c-12.1,10.4-24.1,16.6-24.6,16.8l-1.8,0.9L54.6,127.8z"/>
	<path fill="#FFFFFF" d="M104,8c0,0,0,25,0,58.5s-47.6,57.8-47.6,57.8S8,100.5,8,66.7S8,8,8,8H104 M112,0h-8H8H0v8v58.7
		c0,38.3,50.7,63.6,52.9,64.7l3.6,1.8l3.5-1.8c2.1-1.1,52-26.9,52-64.9V8V0L112,0z"/>
	<path fill="#FFFFFF" d="M56,92.5c-20,0-36.2-16.3-36.2-36.2S36,20,56,20s36.2,16.3,36.2,36.2S76,92.5,56,92.5z M56,32
		c-13.4,0-24.2,10.9-24.2,24.2c0,13.4,10.9,24.2,24.2,24.2c13.4,0,24.2-10.9,24.2-24.2C80.2,42.8,69.4,32,56,32z"/>
</svg>
