<svg xmlns="http://www.w3.org/2000/svg" viewBox="0 0 633 587.7"><path fill="#FF0" d="M633 0c-.8 58-16.3 92.6-46.5 104.1-13.1 5.7-48.6 8.6-106.5 8.6v346.5c0 56.3 17.1 84.5 51.4 84.5 39.2 0 61.2-42 66.1-126.1v-20.8h29.4c0 127.3-42.9 191-128.6 191-64.5 0-103.3-31.8-116.3-95.5-3.3-13.9-4.9-29-4.9-45.3V112.7h-164v181.2c-6.5 195.9-47.8 293.9-123.7 293.9-49.8 0-78.4-26.9-85.7-80.8C2 496.3.8 469.8 0 427.3h29.4c0 31.8 9.4 53.5 28.2 64.9 5.7 4.1 12.2 6.1 19.6 6.1 66.9 0 100.4-115.5 100.4-346.5v-39.2h-61.2c-40 0-65.3 18-75.9 53.9-.8 1.6-1.2 3.3-1.2 4.9H9.8c10.6-67.8 33.5-111 68.6-129.8 24.5-12.2 66.1-18.4 124.9-18.4l356.3 8.6h3.7c27.8 0 43.3-10.6 46.5-31.8H633z"/></svg>