<svg xmlns="http://www.w3.org/2000/svg" viewBox="0 0 314 314"><circle cx="157" cy="157" r="157" fill="#FFF"/><circle cx="157" cy="157" r="147" fill="#006F3A"/><path fill="#FFF" d="M172 68c-.9-6.6-6.9-11.2-13.4-10.4-6.6.9-11.2 6.9-10.4 13.5 25.6 22.7 35.4 69 21.8 103.4-13.6 34.4-45.3 43.9-70.9 21.2-25.6-22.7-35.4-69-21.8-103.4 1.8-4.6 4-8.9 6.5-12.7-.9-6.6-6.9-11.2-13.5-10.3-6.6.9-11.2 6.9-10.3 13.5-19.1 44-6.1 102.6 29.1 130.8s79.2 15.4 98.2-28.6c16.1-37.1 9.7-85.5-15.3-117z"/><path stroke="#000" stroke-width="6" d="M61 119.9l-.3 8M63 145l1.7 7.8M69 168l3.4 7.3M79 189l5.1 6.1M180 104l3.1 7.4M186 129l.6 8m-.6 17l-1.4 7.9M180 178l-3.4 7.3" stroke-linecap="round"/><path fill="#FFF" d="M233 107c-.9-6.6-6.9-11.2-13.4-10.3s-11.2 6.9-10.4 13.4c25.6 22.7 35.4 69 21.8 103.4s-45.3 43.9-70.9 21.2c-25.6-22.7-35.4-69-21.8-103.4 1.8-4.6 4-8.9 6.5-12.7-.9-6.6-6.9-11.2-13.5-10.3-6.6.9-11.2 6.9-10.3 13.4-19.1 44-6.1 102.6 29.1 130.8 35.2 28.2 79.2 15.4 98.2-28.6 16.1-37 9.7-85.4-15.3-116.9z"/><path stroke="#000" stroke-width="6" d="M122 158.9l-.3 8M124 184l1.7 7.8M130 207l3.4 7.3M140 228l5.1 6.1M241 143l3.1 7.4M247 168l.6 8m-.6 17l-1.4 7.9M241 217l-3.4 7.3" stroke-linecap="round"/></svg>