<svg xmlns="http://www.w3.org/2000/svg" viewBox="0 0 1020 620"><path fill="#FCC800" d="M690.93 449.12l-90.1 45.9-58.2-83.1-113.1-161.5H.03v-117.2h490.5l148.1 211.5 380.5-193.9v131.5l-327.3 166.8"/><path fill="#D32011" d="M0 239.104h436.6l168.6 240.7 413.7-210.8.3 30.4-422.7 215.4-174-248.5H0v-27.2 27.2M1019.17 431.213l-370.5 188.8-59.6-.4 430.1-219.1v30.7z"/><path fill="#D32011" d="M361.412 383.542H.012v-27.2h375.6l184.3 263.3h-33.2l-165.3-236.1M498.72 121.957H.02v27.2h484.6l150.5 215 384-195.7v-30.5l-375.3 191.2-145.1-207.2H.02v27.2"/></svg>