<svg xmlns="http://www.w3.org/2000/svg" viewBox="0 0 124.3 114.5"><path fill="none" d="M68.2 56C54.3 56 43 67.3 43 81.2s11.3 25.2 25.3 25.2 25.2-11.3 25.2-25.2S82.2 56 68.2 56z"/><path fill="#000" d="M92.3 25v8h18.3l-22 22c-5.6-4.4-12.7-7-20.4-7C49.9 48 35 62.9 35 81.2s14.9 33.2 33.3 33.2 33.2-14.9 33.2-33.2c0-7.8-2.7-14.9-7.2-20.6l22-22V58h8V25h-32zm-24.1 81.5C54.3 106.5 43 95.2 43 81.2S54.3 56 68.2 56s25.2 11.3 25.2 25.2-11.2 25.3-25.2 25.3z"/><path fill="none" d="M33.2 30.7C19.3 30.7 8 42 8 55.9s11.3 25.2 25.2 25.2 25.2-11.3 25.2-25.2-11.2-25.2-25.2-25.2z"/><path fill="#000" d="M57.3 0v8h18.3l-22 22c-6.4-5-14.6-7.7-23.5-6.9-16.1 1.5-29 14.8-30 31-1.3 20 15.3 36.6 35.3 35.3 16.3-1 29.6-14 31-30.2.8-8.9-2-17.2-7.1-23.6l22-22V33h8V0h-32zM33.2 81.2C19.3 81.2 8 69.8 8 55.9s11.3-25.3 25.2-25.3S58.5 42 58.5 55.9 47.2 81.2 33.2 81.2z"/></svg>